<svg xmlns="http://www.w3.org/2000/svg" viewBox="0 0 32 40" x="0px" y="0px"><defs><style>.cls-1{fill-rule:evenodd;}</style></defs><title>barcode</title><g><path class="cls-1" d="M2,13a1,1,0,0,0,1-1V7H8A1,1,0,0,0,8,5H2A1,1,0,0,0,1,6v6A1,1,0,0,0,2,13Z"/><path class="cls-1" d="M8,25H3V20a1,1,0,0,0-2,0v6a1,1,0,0,0,1,1H8a1,1,0,0,0,0-2Z"/><path class="cls-1" d="M30,19a1,1,0,0,0-1,1v5H24a1,1,0,0,0,0,2h6a1,1,0,0,0,1-1V20A1,1,0,0,0,30,19Z"/><path class="cls-1" d="M30,5H24a1,1,0,0,0,0,2h5v5a1,1,0,0,0,2,0V6A1,1,0,0,0,30,5Z"/><path class="cls-1" d="M5,10V22a1,1,0,0,0,2,0V10a1,1,0,0,0-2,0Z"/><path class="cls-1" d="M18,9a1,1,0,0,0-1,1V22a1,1,0,0,0,2,0V10A1,1,0,0,0,18,9Z"/><path class="cls-1" d="M10,9a1,1,0,0,0-1,1V22a1,1,0,0,0,2,0V10A1,1,0,0,0,10,9Z"/><path class="cls-1" d="M23,10a1,1,0,0,0-2,0V22a1,1,0,0,0,2,0Z"/><path class="cls-1" d="M14,9a1,1,0,0,0-1,1V22a1,1,0,0,0,2,0V10A1,1,0,0,0,14,9Z"/><path class="cls-1" d="M27,22V10a1,1,0,0,0-2,0V22a1,1,0,0,0,2,0Z"/></g><text x="0" y="47" fill="#000000" font-size="5px" font-weight="bold" font-family="'Helvetica Neue', Helvetica, Arial-Unicode, Arial, Sans-serif">Created by Adam Baihaqi</text><text x="0" y="52" fill="#000000" font-size="5px" font-weight="bold" font-family="'Helvetica Neue', Helvetica, Arial-Unicode, Arial, Sans-serif">from the Noun Project</text></svg>